<svg xmlns="http://www.w3.org/2000/svg" viewBox="0 0 20 20"><defs><style>.cls-1{fill:none;}</style></defs><title>arrowRight</title><g id="Layer_2" data-name="Layer 2"><g id="Layer_1-2" data-name="Layer 1"><rect class="cls-1" width="20" height="20"/><path d="M2.9,11.25H13.58l-3.36,3.37a.88.88,0,0,0,0,1.25l.52.52a.87.87,0,0,0,.62.25.9.9,0,0,0,.62-.25l5.76-5.77A.84.84,0,0,0,18,10a.85.85,0,0,0-.26-.62L12,3.61a.9.9,0,0,0-.62-.25.87.87,0,0,0-.62.25l-.52.52a.87.87,0,0,0-.26.62.83.83,0,0,0,.26.61l3.4,3.39H2.89a.91.91,0,0,0-.89.9v.74A.89.89,0,0,0,2.9,11.25Z"/></g></g></svg>
