<svg xmlns="http://www.w3.org/2000/svg" viewBox="0 0 20 20">
    <defs>
        <style>
        .cls-1{fill:none;}
        </style>
    </defs>
    <title>arrowLeft</title>
    <g id="Layer_2" data-name="Layer 2">
        <g id="Layer_1-2" data-name="Layer 1">
            <rect class="cls-1" width="20" height="20"/>
            <path d="M17.1,8.75H6.42L9.78,5.38a.88.88,0,0,0,0-1.25l-.52-.52a.87.87,0,0,0-.62-.25A.9.9,0,0,0,8,3.61L2.26,9.38A.84.84,0,0,0,2,10a.85.85,0,0,0,.26.62L8,16.39a.9.9,0,0,0,.62.25.87.87,0,0,0,.62-.25l.52-.52a.87.87,0,0,0,.26-.62.83.83,0,0,0-.26-.61l-3.4-3.39H17.11a.91.91,0,0,0,.89-.9V9.61A.89.89,0,0,0,17.1,8.75Z"/>
        </g>
    </g>
</svg>
