<svg xmlns="http://www.w3.org/2000/svg" xmlns:xlink="http://www.w3.org/1999/xlink" x="0px" y="0px"
	 viewBox="0 0 20 20" style="enable-background:new 0 0 20 20;" xml:space="preserve">
<style type="text/css">
	.st0{fill:none;}
</style>
<g>
	<g>
		<rect class="st0" width="20" height="20"/>
	</g>
	<path d="M12.5,7.2c0.1-0.3,0.2-0.6,0.2-1c0-1-0.7-1.9-1.7-2.3c0.3-0.5,0.7-1,1.1-1.2c0.1-0.1,0.3-0.1,0.4,0c0.2,0.1,0.4,0,0.4-0.2
		c0.1-0.2,0-0.3-0.2-0.4c-0.3-0.1-0.6-0.1-0.9,0c-0.5,0.2-1,0.8-1.4,1.6c-0.1,0-0.3,0-0.4,0s-0.3,0-0.4,0c-0.5-0.9-1-1.4-1.4-1.6
		C7.8,2,7.5,2,7.3,2.1C7.1,2.1,7,2.3,7.1,2.5c0.1,0.2,0.3,0.2,0.4,0.2c0.1,0,0.2,0,0.4,0c0.4,0.2,0.7,0.7,1.1,1.2
		C8,4.3,7.3,5.2,7.3,6.2c0,0.3,0.1,0.7,0.2,1C5.7,8.1,4.4,10,4.4,12.3c0,1.5,0.5,2.8,1.3,3.9c0.9,1.1,2.1,1.7,3.4,1.8h0
		c0.2,0,0.2-0.2,0.2-0.3c0-0.1,0-0.2,0-0.4c0-0.3,0.1-0.7,0.1-1.2c0-0.9,0.1-2.1,0.2-3c0.1-1.3,0.3-1.6,0.3-1.7
		c0.1,0.1,0.2,0.4,0.3,1.6c0.1,0.9,0.2,2,0.3,2.9c0,0.5,0.1,1,0.1,1.3c0,0.2,0,0.3,0.1,0.4c0,0.1,0,0.3,0.2,0.3h0
		c1.4-0.2,2.5-0.8,3.4-1.9c0.8-1,1.3-2.4,1.3-3.8C15.6,10,14.3,8.1,12.5,7.2z M7,15.6c-0.6,0-1-0.5-1-1c0-0.6,0.5-1,1-1s1,0.5,1,1
		C8,15.1,7.5,15.6,7,15.6z M7.5,12.6c-0.8,0-1.5-0.7-1.5-1.5s0.7-1.5,1.5-1.5S9,10.2,9,11.1S8.3,12.6,7.5,12.6z M13,15.6
		c-0.6,0-1-0.5-1-1c0-0.6,0.5-1,1-1s1,0.5,1,1C14,15.1,13.5,15.6,13,15.6z M12.5,12.6c-0.8,0-1.5-0.7-1.5-1.5s0.7-1.5,1.5-1.5
		s1.5,0.7,1.5,1.5S13.3,12.6,12.5,12.6z"/>
</g>
</svg>