<svg xmlns="http://www.w3.org/2000/svg" viewBox="0 0 20 20">
    <defs>
        <style type="text/css">
        .st0{fill:none;}
        </style>
    </defs>
    <title>cancel</title>
    <g>
        <g>
        <rect class="st0" width="20" height="20"/>
        </g>
        <path d="M14.7,14.6c-0.4,0.4-0.9,0.4-1.3,0l-3.4-3.4l-3.5,3.5c-0.4,0.4-0.9,0.4-1.3,0s-0.4-0.9,0-1.3l3.5-3.5L5.4,6.5
        c-0.4-0.4-0.4-0.9,0-1.3c0.4-0.4,0.9-0.4,1.3,0l3.4,3.4l3.2-3.2c0.4-0.4,0.9-0.4,1.3,0c0.4,0.4,0.4,0.9,0,1.3l-3.2,3.2l3.4,3.4
        C15.1,13.6,15.1,14.2,14.7,14.6z"/>
    </g>
</svg>
