<svg xmlns="http://www.w3.org/2000/svg" xmlns:xlink="http://www.w3.org/1999/xlink" x="0px" y="0px"
	 viewBox="0 0 20 20" style="enable-background:new 0 0 20 20;" xml:space="preserve">
<style type="text/css">
	.st0{fill:none;}
</style>
<g>
	<g>
		<rect class="st0" width="20" height="20"/>
	</g>
	<g>
		<path d="M6.7,15.2c0-1-0.8-1.9-1.9-1.9S3,14.1,3,15.2v0.9c0,0.5-0.5,1-1,1V18h1.9C5.5,18,6.7,16.7,6.7,15.2L6.7,15.2z"/>
		<path d="M11,2.9C9.4,3,8,3.6,6.9,4.4C7,5.2,7.1,6.3,7.1,7.6c0.2,0,0.4,0,0.5,0c0.8,0.2,1.2,1,1,1.7c-0.2,0.6-0.7,1-1.4,1
			c0,0-0.1,0-0.1,0c0,0.7,0,1.5-0.1,2.2c0.5,0.2,0.9,0.5,1.1,0.8c0.5,0.7,0.4,1.5,0.3,1.7c-0.2,0.8,0.3,1.6,1.1,1.7
			c0.4,0.1,0.9,0.1,1.3,0.1c3.9,0,7.1-3.1,7.1-7.1C18,5.9,14.5,2.8,11,2.9z M12.6,6.4c0.5-0.5,1.4-0.5,2,0s0.5,1.4,0,2v0
			c-0.5,0.5-1.4,0.5-2,0C12,7.8,12,6.9,12.6,6.4L12.6,6.4z M8.6,6.7C8.4,6,8.8,5.2,9.6,5c0.7-0.2,1.5,0.2,1.7,1
			c0.2,0.7-0.2,1.5-1,1.7C9.6,7.9,8.8,7.5,8.6,6.7L8.6,6.7z M12.3,15c-0.7,0.2-1.5-0.2-1.7-1c-0.2-0.7,0.2-1.5,1-1.7
			c0.8-0.2,1.5,0.2,1.7,1C13.5,14,13,14.8,12.3,15z M15.9,11.3c-0.2,0.8-1,1.2-1.7,1c-0.7-0.2-1.2-1-1-1.7c0.2-0.8,1-1.2,1.7-1
			C15.7,9.8,16.1,10.6,15.9,11.3L15.9,11.3z"/>
		<path d="M6.2,10.5c0-0.2,0-0.3,0-0.5c0-3.6-0.2-8-1.4-8s-1.4,4.4-1.4,8c0,0.2,0,0.3,0,0.5H6.2z"/>
		<path d="M4.8,12.3c0.5,0,0.9,0.1,1.3,0.4c0-0.4,0-0.9,0-1.3H3.5c0,0.4,0,0.9,0,1.3C3.9,12.5,4.4,12.3,4.8,12.3z"/>
	</g>
</g>
</svg>