<svg xmlns="http://www.w3.org/2000/svg" xmlns:xlink="http://www.w3.org/1999/xlink" x="0px" y="0px"
	 viewBox="0 0 20 20" style="enable-background:new 0 0 20 20;" xml:space="preserve">
<style type="text/css">
	.st0{fill:none;}
</style>
<g>
	<g>
		<rect class="st0" width="20" height="20"/>
	</g>
	<g>
		<path d="M8.6,13.3H10c0.2,0,0.4,0.2,0.4,0.4v0.5c0,0.2-0.2,0.4-0.4,0.4H8.6c-0.2,0-0.4-0.2-0.4-0.4v-0.5
			C8.3,13.4,8.4,13.3,8.6,13.3z"/>
		<path d="M6,13.1c-0.5,0-0.9,0.4-0.8,0.8c0,0.4,0.3,0.7,0.7,0.7c0.5,0,0.9-0.4,0.8-0.8C6.7,13.4,6.3,13.1,6,13.1z"/>
		<path d="M14.2,9.3H8.6c-0.2,0-0.4,0.2-0.4,0.4v0.5c0,0.2,0.2,0.4,0.4,0.4h5.6c0.2,0,0.4-0.2,0.4-0.4V9.7
			C14.6,9.4,14.4,9.3,14.2,9.3z"/>
		<ellipse transform="matrix(0.7071 -0.7071 0.7071 0.7071 -5.2749 7.0778)" cx="5.9" cy="9.9" rx="0.8" ry="0.8"/>
		<path d="M14.2,5.5H8.6c-0.2,0-0.4,0.2-0.4,0.4v0.5c0,0.2,0.2,0.4,0.4,0.4h5.6c0.2,0,0.4-0.2,0.4-0.4V5.9
			C14.6,5.7,14.4,5.5,14.2,5.5z"/>
		<path d="M6,5.4c-0.5,0-0.9,0.4-0.8,0.8c0,0.4,0.3,0.7,0.7,0.7c0.5,0,0.9-0.4,0.8-0.8C6.7,5.7,6.3,5.4,6,5.4z"/>
		<path d="M3.2,16.1V3.9c0-0.3,0.3-0.6,0.6-0.6h12.3c0.3,0,0.6,0.3,0.6,0.6v6.6c0,0.3,0.2,0.5,0.5,0.5h0.3c0.3,0,0.5-0.2,0.5-0.5
			V3.9c0-1-0.8-1.9-1.9-1.9H3.9C2.8,2,2,2.8,2,3.9v12.3c0,1,0.8,1.9,1.9,1.9h6.7c0.3,0,0.5-0.2,0.5-0.5v-0.3c0-0.3-0.2-0.5-0.5-0.5
			H3.9C3.5,16.8,3.2,16.5,3.2,16.1z"/>
		<path d="M16.8,17.7l-0.9-0.9c-0.5,0.3-1,0.4-1.6,0.4c-1.4-0.1-2.6-1.2-2.7-2.7c-0.1-1.7,1.3-3,2.9-2.9c1.4,0.1,2.6,1.2,2.7,2.7
			c0,0.6-0.1,1.2-0.5,1.7l0.9,0.9c0.2,0.2,0.2,0.5,0,0.7l-0.2,0.2C17.3,17.8,17,17.8,16.8,17.7z M14.3,15.9c1,0.1,1.8-0.7,1.7-1.7
			c-0.1-0.7-0.7-1.3-1.4-1.4c-1-0.1-1.8,0.7-1.7,1.7C12.9,15.2,13.5,15.8,14.3,15.9z"/>
	</g>
</g>
</svg>