<svg xmlns="http://www.w3.org/2000/svg" xmlns:xlink="http://www.w3.org/1999/xlink" x="0px" y="0px"
	 viewBox="0 0 20 20" style="enable-background:new 0 0 20 20;" xml:space="preserve">
<style type="text/css">
	.st0{fill:none;}
</style>
<g>
	<g>
		<rect class="st0" width="20" height="20"/>
	</g>
	<g id="_08-wand_1_">
		<g id="Glyph_1_">
			<path d="M17.7,7.2l-1.1-1.5l0.6-1.8c0.1-0.4-0.1-0.7-0.4-0.9c-0.1,0-0.3,0-0.4,0l-1.8,0.6l-1.5-1.1c-0.3-0.2-0.7-0.2-0.9,0.1
				c-0.1,0.1-0.1,0.3-0.1,0.4l0,1.9l-1.6,1.1C10,6.3,10,6.7,10.2,7c0.1,0.1,0.2,0.2,0.4,0.3l1.1,0.3L2.2,17l1,1l9.4-9.4l0.3,1.1
				c0.1,0.2,0.3,0.4,0.5,0.5c0,0,0.1,0,0.1,0c0.2,0,0.4-0.1,0.6-0.3l1.1-1.6l1.9,0h0c0.4,0,0.7-0.3,0.7-0.7
				C17.8,7.5,17.7,7.4,17.7,7.2L17.7,7.2z"/>
			<path d="M15.7,12.8c-0.7,0-1.2-0.5-1.2-1.2c0-0.1-0.1-0.2-0.2-0.2s-0.2,0.1-0.2,0.2c0,0.7-0.5,1.2-1.2,1.2
				c-0.1,0-0.2,0.1-0.2,0.2s0.1,0.2,0.2,0.2c0.7,0,1.2,0.5,1.2,1.2c0,0.1,0.1,0.2,0.2,0.2s0.2-0.1,0.2-0.2c0-0.7,0.5-1.2,1.2-1.2
				c0.1,0,0.2-0.1,0.2-0.2S15.8,12.8,15.7,12.8L15.7,12.8z"/>
			<path d="M7.4,3.7c0.7,0,1.2,0.5,1.2,1.2c0,0.1,0.1,0.2,0.2,0.2S9,5,9,4.9c0-0.7,0.5-1.2,1.2-1.2c0.1,0,0.2-0.1,0.2-0.2
				c0-0.1-0.1-0.2-0.2-0.2C9.5,3.4,9,2.8,9,2.2C9,2.1,8.9,2,8.8,2S8.6,2.1,8.6,2.2c0,0.7-0.5,1.2-1.2,1.2c-0.1,0-0.2,0.1-0.2,0.2
				S7.3,3.7,7.4,3.7z"/>
			<path d="M3.2,9.4c0.7,0,1.2,0.5,1.2,1.2c0,0.1,0.1,0.2,0.2,0.2c0.1,0,0.2-0.1,0.2-0.2c0-0.7,0.5-1.2,1.2-1.2
				c0.1,0,0.2-0.1,0.2-0.2S6,9,5.9,9C5.3,9,4.7,8.5,4.7,7.8c0-0.1-0.1-0.2-0.2-0.2c-0.1,0-0.2,0.1-0.2,0.2C4.4,8.5,3.9,9,3.2,9
				C3.1,9,3,9.1,3,9.2S3.1,9.4,3.2,9.4z"/>
		</g>
	</g>
</g>
</svg>
