<svg xmlns="http://www.w3.org/2000/svg" xmlns:xlink="http://www.w3.org/1999/xlink" x="0px" y="0px"
	 viewBox="0 0 20 20" style="enable-background:new 0 0 20 20;" xml:space="preserve">
<style type="text/css">
	.st0{fill:none;}
</style>
<g>
	<g>
		<rect class="st0" width="20" height="20"/>
	</g>
	<g>
		<path d="M16.9,6c-0.7-1.2-1.7-2.2-2.9-2.9C12.8,2.4,11.5,2,10,2C8.5,2,7.2,2.4,6,3.1C4.8,3.8,3.8,4.8,3.1,6C2.4,7.2,2,8.5,2,10
			c0,1.5,0.4,2.8,1.1,4c0.7,1.2,1.7,2.2,2.9,2.9c1.2,0.7,2.6,1.1,4,1.1s2.8-0.4,4-1.1c1.2-0.7,2.2-1.7,2.9-2.9
			c0.7-1.2,1.1-2.6,1.1-4C18,8.5,17.6,7.2,16.9,6z M11.3,15c0,0.1,0,0.2-0.1,0.2c-0.1,0.1-0.1,0.1-0.2,0.1H9c-0.1,0-0.2,0-0.2-0.1
			c-0.1-0.1-0.1-0.1-0.1-0.2v-2c0-0.1,0-0.2,0.1-0.2c0.1-0.1,0.1-0.1,0.2-0.1h2c0.1,0,0.2,0,0.2,0.1c0.1,0.1,0.1,0.1,0.1,0.2V15z
			 M13.9,8.8c-0.1,0.3-0.2,0.5-0.3,0.6c-0.1,0.2-0.3,0.3-0.5,0.5c-0.2,0.2-0.4,0.3-0.5,0.4c-0.1,0.1-0.3,0.2-0.5,0.3
			c-0.2,0.1-0.4,0.3-0.6,0.5c-0.1,0.2-0.2,0.4-0.2,0.5c0,0.1,0,0.2-0.1,0.2C11.2,12,11.1,12,11,12H9c-0.1,0-0.2,0-0.2-0.1
			c-0.1-0.1-0.1-0.1-0.1-0.2v-0.4c0-0.5,0.2-0.9,0.5-1.3c0.4-0.4,0.8-0.7,1.2-0.9c0.3-0.2,0.6-0.3,0.7-0.5c0.1-0.2,0.2-0.4,0.2-0.6
			c0-0.2-0.1-0.4-0.4-0.6c-0.3-0.2-0.6-0.3-0.9-0.3c-0.4,0-0.7,0.1-0.9,0.3c-0.2,0.2-0.5,0.5-0.9,1C8.2,8.4,8.1,8.4,8,8.4
			c-0.1,0-0.1,0-0.2-0.1l-1.4-1C6.3,7.2,6.2,7.1,6.3,6.9c0.9-1.5,2.2-2.2,3.9-2.2c0.6,0,1.2,0.1,1.8,0.4c0.6,0.3,1.1,0.7,1.4,1.2
			C13.8,6.8,14,7.4,14,8C14,8.3,14,8.6,13.9,8.8z"/>
	</g>
</g>
</svg>